<svg version="1.1" id="Layer_1" xmlns="http://www.w3.org/2000/svg" xmlns:xlink="http://www.w3.org/1999/xlink" x="0px" y="0px"
	 width="100%" viewBox="0 0 2048 2048" enable-background="new 0 0 2048 2048" xml:space="preserve">
<path fill="#FFFFFF" opacity="1.000000" stroke="none" 
	d="
M888.000000,2049.000000 
	C592.000000,2049.000000 296.500000,2049.000000 1.000000,2049.000000 
	C1.000000,1366.333374 1.000000,683.666687 1.000000,1.000000 
	C683.666687,1.000000 1366.333374,1.000000 2049.000000,1.000000 
	C2049.000000,683.666687 2049.000000,1366.333374 2049.000000,2049.000000 
	C1662.166626,2049.000000 1275.333374,2049.000000 888.000000,2049.000000 
M971.607483,884.977966 
	C971.706421,884.652893 971.805420,884.327820 972.268677,883.367004 
	C974.103333,880.628662 976.637146,879.911621 979.904114,879.966553 
	C991.166992,880.155884 1002.434998,880.039429 1014.208862,880.039429 
	C1013.168518,851.051086 1007.478394,823.571228 996.955872,796.242615 
	C993.819824,789.475708 990.896912,782.600098 987.512634,775.959778 
	C968.180054,738.026672 938.803894,710.106506 901.246826,690.679993 
	C861.303162,670.019104 818.193481,661.480652 773.719116,659.651855 
	C752.805603,658.791992 731.772705,659.485107 710.848999,660.553528 
	C683.189148,661.965881 656.026062,666.727051 629.597900,675.376160 
	C586.455750,689.495178 548.683105,711.865173 519.205505,746.947754 
	C491.791199,779.574585 474.462555,817.238464 464.546021,858.454712 
	C458.136719,885.093933 455.407135,912.208740 454.698029,939.560425 
	C454.551483,945.212341 455.433624,946.379761 461.096832,946.384583 
	C506.418671,946.423523 551.740845,946.366516 597.061951,946.557190 
	C602.035828,946.578064 603.210754,944.658386 603.499329,940.143738 
	C604.251953,928.369995 604.976074,916.551819 606.666626,904.889832 
	C609.824097,883.109802 616.500000,862.468689 628.302795,843.643860 
	C643.778198,818.961365 667.065674,805.574158 694.415283,798.907227 
	C725.548889,791.317932 757.078003,791.156494 788.563477,797.225891 
	C805.834900,800.555237 822.012695,806.617310 834.981445,818.963623 
	C855.689575,838.677795 862.696655,863.348572 860.138611,891.274902 
	C859.948364,893.352051 860.307312,895.479553 859.960083,898.328918 
	C858.559448,903.262817 857.158813,908.196655 855.245300,913.570007 
	C849.073669,929.004211 840.187256,942.871094 827.255554,953.156677 
	C812.185303,965.143188 796.720032,977.019775 780.051575,986.536499 
	C733.075562,1013.356995 685.305176,1038.782104 638.028992,1065.082397 
	C613.020142,1078.995239 587.688232,1092.509644 563.735474,1108.098877 
	C518.243835,1137.706299 483.057892,1176.757202 460.623627,1226.758789 
	C446.726898,1257.731812 438.342163,1290.121216 434.070831,1323.675171 
	C431.268188,1345.691528 430.248840,1367.790405 431.317749,1390.759033 
	C433.176270,1391.081055 435.034454,1391.682495 436.893311,1391.684448 
	C508.774902,1391.759766 580.656555,1391.783569 652.538147,1391.795532 
	C655.357483,1391.796021 658.176758,1391.614990 661.916565,1391.730347 
	C670.738403,1391.837891 679.559998,1391.981934 688.382141,1392.040405 
	C694.503174,1392.080811 699.017639,1390.640137 702.431824,1384.214478 
	C719.994202,1351.161987 738.245239,1318.475830 756.195007,1285.628540 
	C762.229736,1274.585327 768.085266,1263.444092 774.233459,1251.953857 
	C739.429016,1251.953857 705.182983,1251.953857 670.630493,1251.660034 
	C670.105103,1251.757568 669.579712,1251.855103 668.117004,1251.828857 
	C648.091980,1251.887329 628.067017,1251.945801 607.318481,1251.726807 
	C606.291443,1251.766113 605.264465,1251.805298 603.799744,1251.412109 
	C604.164795,1250.458740 604.316833,1249.333862 604.926086,1248.577148 
	C618.069946,1232.254395 632.907104,1217.628052 651.263733,1207.363892 
	C688.968750,1186.280884 726.988525,1165.760010 764.913086,1145.070679 
	C777.871704,1138.001221 790.933105,1131.120239 804.671448,1124.011353 
	C819.983093,1115.627197 835.202087,1107.066772 850.651306,1098.944214 
	C856.960266,1095.627075 861.650269,1091.327393 864.467773,1084.702881 
	C866.478333,1079.975464 869.177185,1075.536499 871.632690,1071.003418 
	C904.025879,1011.200806 936.439514,951.409119 968.792786,891.584839 
	C969.867676,889.597168 970.359924,887.294434 971.071472,885.094971 
	C971.071472,885.094971 971.080383,885.162170 971.607483,884.977966 
M1181.366821,1003.627319 
	C1181.366821,1003.627319 1181.354370,1003.543335 1181.321533,1002.850281 
	C1164.682617,971.565491 1148.086060,940.257996 1131.281494,909.062439 
	C1130.428589,907.479187 1127.786377,905.934875 1125.972656,905.929382 
	C1082.027344,905.796936 1038.081421,905.862854 994.135864,906.001709 
	C993.098694,906.005005 992.065491,907.255981 990.373108,908.108521 
	C989.536560,909.325073 988.581482,910.477295 987.880615,911.767517 
	C966.910156,950.369568 945.906372,988.953674 925.029053,1027.606079 
	C893.234558,1086.470825 861.502319,1145.369507 829.838806,1204.304810 
	C827.195312,1209.225098 825.274109,1214.533325 822.383423,1219.990845 
	C821.703613,1220.928955 820.908691,1221.804565 820.360413,1222.814087 
	C790.638489,1277.534790 760.934937,1332.265381 731.247986,1387.005127 
	C730.566467,1388.261719 730.095703,1389.632690 729.220154,1391.659912 
	C733.121521,1391.659912 736.395142,1391.661255 739.668762,1391.659790 
	C782.989990,1391.639648 826.311157,1391.619263 870.638916,1391.772095 
	C889.743652,1391.634277 908.848450,1391.496338 928.841736,1391.685913 
	C957.241211,1391.685913 985.640625,1391.685913 1014.435364,1391.685913 
	C1014.435364,1378.793457 1014.468811,1366.333618 1014.423279,1353.874146 
	C1014.394226,1345.909058 1014.248535,1337.944580 1014.366089,1329.111450 
	C1014.537842,1310.708618 1014.709534,1292.305786 1015.817444,1273.708618 
	C1070.812500,1273.760742 1125.807617,1273.858765 1180.802368,1273.767944 
	C1184.751465,1273.761475 1186.628418,1275.136230 1188.429199,1278.506348 
	C1207.421387,1314.049683 1226.672119,1349.454956 1245.629028,1385.016968 
	C1248.183838,1389.809326 1250.965088,1391.838501 1256.721802,1391.801147 
	C1299.049194,1391.526611 1341.379395,1391.691772 1383.708740,1391.700195 
	C1385.299927,1391.700439 1386.891235,1391.511963 1389.135010,1391.370239 
	C1387.973755,1389.072754 1387.134521,1387.315796 1386.213013,1385.603149 
	C1373.033569,1361.110596 1359.758057,1336.669556 1346.670898,1312.127808 
	C1304.749756,1233.514526 1262.928467,1154.848145 1220.999512,1076.239014 
	C1208.464355,1052.737671 1195.702759,1029.356934 1183.045776,1005.316772 
	C1182.511108,1004.766785 1181.976562,1004.216797 1181.366821,1003.627319 
M1332.913574,1040.942871 
	C1332.924683,1099.412476 1332.910645,1157.881958 1333.049561,1216.351318 
	C1333.054565,1218.452637 1334.149658,1220.862427 1335.442871,1222.604248 
	C1376.342163,1277.683594 1417.326904,1332.699585 1458.321289,1387.708252 
	C1458.908936,1388.496826 1459.782837,1389.072266 1460.784424,1389.985596 
	C1460.924927,1389.030029 1461.014893,1388.703613 1461.014893,1388.377197 
	C1461.012451,1300.255981 1461.005127,1212.134766 1460.979248,1124.013550 
	C1460.978882,1122.694336 1460.743896,1121.375122 1460.917725,1119.154907 
	C1460.917725,1085.905762 1460.917725,1052.656494 1460.917725,1019.014954 
	C1463.974609,1019.014954 1466.118286,1019.015076 1468.261963,1019.015015 
	C1500.424805,1019.014038 1532.587769,1018.950806 1564.750000,1019.096313 
	C1568.484863,1019.113159 1570.324219,1017.966431 1571.773560,1014.483398 
	C1585.080688,982.501160 1598.581177,950.599365 1612.011475,918.668213 
	C1613.723267,914.598328 1615.355957,910.495117 1617.179443,906.030151 
	C1466.554932,906.030151 1316.651123,906.030151 1166.257202,906.030151 
	C1166.944214,907.651855 1167.364990,908.877380 1167.958740,910.012451 
	C1186.329468,945.136658 1204.757812,980.230896 1223.031006,1015.405762 
	C1224.625854,1018.475708 1226.671631,1019.061157 1229.769287,1019.051453 
	C1262.098389,1018.950317 1294.427856,1018.964478 1326.757202,1018.946899 
	C1328.685303,1018.945801 1330.613403,1018.946655 1333.144409,1018.946655 
	C1333.144409,1026.446533 1333.144409,1033.239258 1332.913574,1040.942871 
z"/>
<path fill="#E51F26" opacity="1.000000" stroke="none" 
	d="
M1183.044800,1005.920959 
	C1195.702759,1029.356934 1208.464355,1052.737671 1220.999512,1076.239014 
	C1262.928467,1154.848145 1304.749756,1233.514526 1346.670898,1312.127808 
	C1359.758057,1336.669556 1373.033569,1361.110596 1386.213013,1385.603149 
	C1387.134521,1387.315796 1387.973755,1389.072754 1389.135010,1391.370239 
	C1386.891235,1391.511963 1385.299927,1391.700439 1383.708740,1391.700195 
	C1341.379395,1391.691772 1299.049194,1391.526611 1256.721802,1391.801147 
	C1250.965088,1391.838501 1248.183838,1389.809326 1245.629028,1385.016968 
	C1226.672119,1349.454956 1207.421387,1314.049683 1188.429199,1278.506348 
	C1186.628418,1275.136230 1184.751465,1273.761475 1180.802368,1273.767944 
	C1125.807617,1273.858765 1070.812500,1273.760742 1015.009399,1273.595093 
	C988.921387,1273.400879 963.640625,1273.398071 938.362122,1273.157104 
	C934.490417,1273.120239 932.435425,1274.429688 930.597412,1277.819946 
	C914.035950,1308.367676 897.225342,1338.780518 880.635864,1369.313110 
	C876.683655,1376.587158 873.285400,1384.162231 869.632324,1391.598877 
	C826.311157,1391.619263 782.989990,1391.639648 739.668762,1391.659790 
	C736.395142,1391.661255 733.121521,1391.659912 729.220154,1391.659912 
	C730.095703,1389.632690 730.566467,1388.261719 731.247986,1387.005127 
	C760.934937,1332.265381 790.638489,1277.534790 820.360413,1222.814087 
	C820.908691,1221.804565 821.703613,1220.928955 823.041870,1219.812012 
	C880.212891,1198.671875 936.725525,1177.710449 993.690186,1156.753662 
	C1037.651489,1156.758179 1081.160645,1156.758179 1125.302979,1156.758179 
	C1118.308472,1143.749634 1111.750000,1131.611938 1105.246460,1119.444946 
	C1090.023682,1090.965088 1074.827026,1062.471191 1059.556641,1033.662476 
	C1051.614380,1018.673584 1043.744751,1004.000122 1035.854004,989.338074 
	C1021.258911,962.218811 1006.651367,935.106262 992.250610,907.726929 
	C993.508118,907.694702 994.689453,907.697388 995.599915,908.195190 
	C1001.725281,911.544739 1007.702820,915.173096 1013.894836,918.390625 
	C1043.702759,933.880005 1073.527832,949.337402 1103.416748,964.669617 
	C1127.270020,976.905701 1151.217407,988.958679 1175.145020,1001.049194 
	C1177.128540,1002.051453 1179.280640,1002.719788 1181.354370,1003.543335 
	C1181.354370,1003.543335 1181.366821,1003.627319 1181.333130,1003.957397 
	C1181.881226,1004.831970 1182.463013,1005.376465 1183.044800,1005.920959 
z"/>
<path fill="#1864A5" opacity="1.000000" stroke="none" 
	d="
M431.386658,1389.971313 
	C430.248840,1367.790405 431.268188,1345.691528 434.070831,1323.675171 
	C438.342163,1290.121216 446.726898,1257.731812 460.623627,1226.758789 
	C483.057892,1176.757202 518.243835,1137.706299 563.735474,1108.098877 
	C587.688232,1092.509644 613.020142,1078.995239 638.028992,1065.082397 
	C685.305176,1038.782104 733.075562,1013.356995 780.051575,986.536499 
	C796.720032,977.019775 812.185303,965.143188 827.255554,953.156677 
	C840.187256,942.871094 849.073669,929.004211 855.847473,913.168518 
	C857.143494,911.146057 857.795410,909.505554 858.540649,907.908569 
	C859.756042,905.304321 860.381958,901.945251 862.394165,900.275024 
	C871.554810,892.670410 881.023315,885.425293 890.548889,878.274353 
	C904.177124,868.043701 917.901855,857.939575 931.679199,847.910278 
	C942.726685,839.868286 953.913818,832.018127 965.039001,824.082825 
	C965.365173,826.432617 964.857422,828.220947 964.018494,829.837463 
	C960.363464,836.880249 956.670288,843.904724 952.882874,850.877197 
	C946.074463,863.411072 939.087280,875.848633 932.365295,888.428284 
	C926.429626,899.536499 920.753723,910.783569 914.694763,922.174072 
	C907.237976,935.674255 900.072571,948.982178 892.856689,962.262634 
	C874.283203,996.446472 855.764526,1030.660400 837.071167,1064.778687 
	C826.181885,1084.653442 814.998535,1104.366943 803.947571,1124.153076 
	C790.933105,1131.120239 777.871704,1138.001221 764.913086,1145.070679 
	C726.988525,1165.760010 688.968750,1186.280884 651.263733,1207.363892 
	C632.907104,1217.628052 618.069946,1232.254395 604.926086,1248.577148 
	C604.316833,1249.333862 604.164795,1250.458740 603.665039,1251.728027 
	C602.804871,1252.417969 601.983215,1252.675537 601.367981,1253.183228 
	C585.662109,1266.144775 570.031860,1279.198242 554.275635,1292.098022 
	C536.730469,1306.462524 519.077820,1320.695801 501.465332,1334.978027 
	C482.051910,1350.720459 462.675323,1366.509033 443.173553,1382.141357 
	C439.507812,1385.079590 435.328796,1387.377686 431.386658,1389.971313 
z"/>
<path fill="#1C8ED1" opacity="1.000000" stroke="none" 
	d="
M1333.144409,1040.031982 
	C1333.144409,1033.239258 1333.144409,1026.446533 1333.144409,1018.946655 
	C1330.613403,1018.946655 1328.685303,1018.945801 1326.757202,1018.946899 
	C1294.427856,1018.964478 1262.098389,1018.950317 1229.769287,1019.051453 
	C1226.671631,1019.061157 1224.625854,1018.475708 1223.031006,1015.405762 
	C1204.757812,980.230896 1186.329468,945.136658 1167.958740,910.012451 
	C1167.364990,908.877380 1166.944214,907.651855 1166.257202,906.030151 
	C1316.651123,906.030151 1466.554932,906.030151 1617.179443,906.030151 
	C1615.355957,910.495117 1613.723267,914.598328 1612.011475,918.668213 
	C1598.581177,950.599365 1585.080688,982.501160 1571.773560,1014.483398 
	C1570.324219,1017.966431 1568.484863,1019.113159 1564.750000,1019.096313 
	C1532.587769,1018.950806 1500.424805,1019.014038 1468.261963,1019.015015 
	C1466.118286,1019.015076 1463.974609,1019.014954 1460.917725,1019.014954 
	C1460.917725,1052.656494 1460.917725,1085.905762 1460.501465,1119.634521 
	C1459.727905,1120.107666 1459.370728,1120.101074 1458.823242,1119.803711 
	C1456.882202,1118.558472 1455.073242,1117.696533 1453.389160,1116.636353 
	C1413.909790,1091.782349 1374.444092,1066.906860 1334.857422,1041.785034 
	C1334.207520,1041.033813 1333.676025,1040.532837 1333.144409,1040.031982 
z"/>
<path fill="#FBCD16" opacity="1.000000" stroke="none" 
	d="
M993.238037,1156.749023 
	C936.725525,1177.710449 880.212891,1198.671875 823.358887,1219.647339 
	C825.274109,1214.533325 827.195312,1209.225098 829.838806,1204.304810 
	C861.502319,1145.369507 893.234558,1086.470825 925.029053,1027.606079 
	C945.906372,988.953674 966.910156,950.369568 987.880615,911.767517 
	C988.581482,910.477295 989.536560,909.325073 990.955505,908.046631 
	C991.708252,907.986755 991.878662,907.988831 992.049011,907.990906 
	C1006.651367,935.106262 1021.258911,962.218811 1035.854004,989.338074 
	C1043.744751,1004.000122 1051.614380,1018.673584 1059.288086,1033.828613 
	C1056.491211,1038.740112 1053.783203,1043.101562 1051.327148,1047.600586 
	C1037.063965,1073.729004 1022.768677,1099.840698 1008.682251,1126.064453 
	C1003.265564,1136.148315 998.370667,1146.512451 993.238037,1156.749023 
z"/>
<path fill="#17407F" opacity="1.000000" stroke="none" 
	d="
M431.352173,1390.365234 
	C435.328796,1387.377686 439.507812,1385.079590 443.173553,1382.141357 
	C462.675323,1366.509033 482.051910,1350.720459 501.465332,1334.978027 
	C519.077820,1320.695801 536.730469,1306.462524 554.275635,1292.098022 
	C570.031860,1279.198242 585.662109,1266.144775 601.367981,1253.183228 
	C601.983215,1252.675537 602.804871,1252.417969 603.883911,1251.944092 
	C605.264465,1251.805298 606.291443,1251.766113 607.976318,1252.150391 
	C610.446350,1252.695557 612.258545,1252.921875 614.070801,1252.923218 
	C652.015259,1252.951904 689.959778,1252.954834 727.904236,1252.962769 
	C729.782227,1252.963257 731.660156,1252.963013 734.353577,1252.963013 
	C732.963989,1256.301147 732.207581,1258.663208 731.051636,1260.810059 
	C719.886108,1281.548340 708.642334,1302.244385 697.444336,1322.965088 
	C690.899536,1335.075439 684.353699,1347.185791 677.889038,1359.339111 
	C672.199829,1370.034546 666.622681,1380.789673 660.996094,1391.518555 
	C658.176758,1391.614990 655.357483,1391.796021 652.538147,1391.795532 
	C580.656555,1391.783569 508.774902,1391.759766 436.893311,1391.684448 
	C435.034454,1391.682495 433.176270,1391.081055 431.352173,1390.365234 
z"/>
<path fill="#EFB928" opacity="1.000000" stroke="none" 
	d="
M860.411011,897.583618 
	C860.307312,895.479553 859.948364,893.352051 860.138611,891.274902 
	C862.696655,863.348572 855.689575,838.677795 834.981445,818.963623 
	C822.012695,806.617310 805.834900,800.555237 788.563477,797.225891 
	C757.078003,791.156494 725.548889,791.317932 694.415283,798.907227 
	C667.065674,805.574158 643.778198,818.961365 628.302795,843.643860 
	C616.500000,862.468689 609.824097,883.109802 606.666626,904.889832 
	C604.976074,916.551819 604.251953,928.369995 603.499329,940.143738 
	C603.210754,944.658386 602.035828,946.578064 597.061951,946.557190 
	C551.740845,946.366516 506.418671,946.423523 461.096832,946.384583 
	C455.433624,946.379761 454.551483,945.212341 454.698029,939.560425 
	C455.407135,912.208740 458.136719,885.093933 464.546021,858.454712 
	C474.462555,817.238464 491.791199,779.574585 519.205505,746.947754 
	C548.683105,711.865173 586.455750,689.495178 629.597900,675.376160 
	C656.026062,666.727051 683.189148,661.965881 710.848999,660.553528 
	C731.772705,659.485107 752.805603,658.791992 773.719116,659.651855 
	C818.193481,661.480652 861.303162,670.019104 901.246826,690.679993 
	C938.803894,710.106506 968.180054,738.026672 987.512634,775.959778 
	C990.896912,782.600098 993.819824,789.475708 996.693237,796.679443 
	C965.584778,820.029602 934.766907,842.980652 903.880737,865.839417 
	C889.458984,876.512939 874.905029,887.007812 860.411011,897.583618 
M755.499756,661.992676 
	C735.465332,662.988098 715.382812,663.430359 695.412598,665.165405 
	C681.125366,666.406799 666.819275,668.624207 652.823975,671.756958 
	C631.123657,676.614441 610.644897,685.099121 590.511475,694.585205 
	C572.419983,703.109192 556.562805,714.720398 541.816223,727.853821 
	C522.715820,744.864929 506.847412,764.680481 495.136383,787.490417 
	C488.497803,800.420593 481.752258,813.499268 477.134003,827.211304 
	C471.510315,843.908447 467.761444,861.269775 463.771790,878.475952 
	C459.262634,897.922546 458.034882,917.761658 457.919373,937.694763 
	C457.894714,941.952637 459.484924,943.113831 463.512817,943.074036 
	C479.923218,942.911865 496.337128,942.896912 512.747925,943.037781 
	C539.622864,943.268311 566.497314,943.604187 593.369446,944.047729 
	C597.631226,944.118103 600.542908,943.658264 600.211304,938.315674 
	C600.029480,935.386047 600.661011,932.397278 601.008545,929.444885 
	C602.302490,918.453796 603.298157,907.413879 605.034363,896.492188 
	C606.991455,884.181091 610.783081,872.397949 616.033630,860.997070 
	C625.557129,840.317871 637.185181,821.232117 658.243591,810.726379 
	C671.540710,804.092712 685.466614,797.701843 699.844910,794.497375 
	C720.150024,789.972168 741.060730,788.811523 762.106689,790.786987 
	C778.023132,792.280945 793.585083,794.598877 808.777405,799.647461 
	C811.394714,800.517334 815.126038,800.260193 817.589722,799.023499 
	C842.835876,786.349426 867.947327,773.405701 893.052368,760.451904 
	C906.297607,753.617615 919.472351,746.645752 932.646240,739.674255 
	C938.446106,736.605042 944.164551,733.381836 950.288635,730.026489 
	C948.727417,728.365417 947.699097,727.060547 946.466370,725.991333 
	C928.501099,710.410095 909.851501,695.841248 887.325500,687.244873 
	C877.100647,683.342896 866.928040,679.198792 856.465576,676.048767 
	C840.150635,671.136536 823.668579,666.847656 806.485657,665.828674 
	C789.806458,664.839478 773.160217,663.293945 755.499756,661.992676 
z"/>
<path fill="#17407F" opacity="1.000000" stroke="none" 
	d="
M804.309509,1124.082275 
	C814.998535,1104.366943 826.181885,1084.653442 837.071167,1064.778687 
	C855.764526,1030.660400 874.283203,996.446472 892.856689,962.262634 
	C900.072571,948.982178 907.237976,935.674255 915.066040,922.145996 
	C920.081543,920.660645 924.390991,918.790100 928.849976,918.310852 
	C934.507690,917.702759 934.645813,918.053711 932.802979,913.682861 
	C933.592285,910.661072 934.793579,908.486206 934.577148,906.462952 
	C933.727600,898.520752 931.074158,890.392883 938.598450,883.976746 
	C938.968628,883.661194 939.471924,883.171387 939.455322,882.782288 
	C939.222656,877.339417 942.875977,875.613403 947.520508,874.626953 
	C953.448669,881.988708 961.252136,885.891418 971.123840,885.138611 
	C970.359924,887.294434 969.867676,889.597168 968.792786,891.584839 
	C936.439514,951.409119 904.025879,1011.200806 871.632690,1071.003418 
	C869.177185,1075.536499 866.478333,1079.975464 864.467773,1084.702881 
	C861.650269,1091.327393 856.960266,1095.627075 850.651306,1098.944214 
	C835.202087,1107.066772 819.983093,1115.627197 804.309509,1124.082275 
z"/>
<path fill="#154E8D" opacity="1.000000" stroke="none" 
	d="
M1333.029053,1040.487427 
	C1333.676025,1040.532837 1334.207520,1041.033813 1334.858765,1042.234131 
	C1335.607788,1048.010864 1336.022217,1053.126099 1336.908936,1058.157837 
	C1339.146362,1070.853027 1341.746460,1083.484985 1343.927490,1096.189209 
	C1347.588257,1117.512207 1350.994629,1138.878784 1354.588623,1160.213379 
	C1357.002930,1174.544678 1359.379150,1188.886841 1362.142822,1203.152466 
	C1363.136475,1208.280884 1364.481689,1213.604370 1366.977539,1218.113037 
	C1370.237549,1224.002319 1374.933594,1229.078857 1378.776001,1234.667236 
	C1389.199829,1249.828003 1399.427368,1265.123901 1409.866211,1280.274292 
	C1423.220093,1299.655396 1436.695312,1318.953125 1450.140259,1338.271484 
	C1452.743896,1342.012329 1455.449585,1345.682007 1459.013428,1350.645386 
	C1459.013428,1272.775635 1459.013428,1196.435059 1459.013428,1120.094482 
	C1459.370728,1120.101074 1459.727905,1120.107666 1460.351807,1120.085083 
	C1460.743896,1121.375122 1460.978882,1122.694336 1460.979248,1124.013550 
	C1461.005127,1212.134766 1461.012451,1300.255981 1461.014893,1388.377197 
	C1461.014893,1388.703613 1460.924927,1389.030029 1460.784424,1389.985596 
	C1459.782837,1389.072266 1458.908936,1388.496826 1458.321289,1387.708252 
	C1417.326904,1332.699585 1376.342163,1277.683594 1335.442871,1222.604248 
	C1334.149658,1220.862427 1333.054565,1218.452637 1333.049561,1216.351318 
	C1332.910645,1157.881958 1332.924683,1099.412476 1333.029053,1040.487427 
z"/>
<path fill="#17407F" opacity="1.000000" stroke="none" 
	d="
M1014.155151,1329.979736 
	C1014.248535,1337.944580 1014.394226,1345.909058 1014.423279,1353.874146 
	C1014.468811,1366.333618 1014.435364,1378.793457 1014.435364,1391.685913 
	C985.640625,1391.685913 957.241211,1391.685913 928.226807,1391.194824 
	C921.273315,1390.324585 914.934631,1389.945435 908.244507,1389.545166 
	C910.031372,1385.621948 911.495300,1381.968994 913.308594,1378.498291 
	C925.521667,1355.121704 937.952209,1331.856934 949.941101,1308.366577 
	C952.130066,1304.077637 954.634949,1302.809082 959.160950,1302.955200 
	C975.754211,1303.490967 992.357544,1303.783936 1008.959167,1303.940796 
	C1012.445435,1303.973755 1013.130859,1305.389648 1013.039246,1308.435303 
	C1012.869385,1314.086914 1012.916504,1319.749268 1013.052795,1325.402832 
	C1013.089722,1326.936401 1013.770142,1328.454468 1014.155151,1329.979736 
z"/>
<path fill="#E95056" opacity="1.000000" stroke="none" 
	d="
M992.250610,907.726929 
	C991.878662,907.988831 991.708252,907.986755 991.284180,907.954895 
	C992.065491,907.255981 993.098694,906.005005 994.135864,906.001709 
	C1038.081421,905.862854 1082.027344,905.796936 1125.972656,905.929382 
	C1127.786377,905.934875 1130.428589,907.479187 1131.281494,909.062439 
	C1148.086060,940.257996 1164.682617,971.565491 1181.337891,1003.196777 
	C1179.280640,1002.719788 1177.128540,1002.051453 1175.145020,1001.049194 
	C1151.217407,988.958679 1127.270020,976.905701 1103.416748,964.669617 
	C1073.527832,949.337402 1043.702759,933.880005 1013.894836,918.390625 
	C1007.702820,915.173096 1001.725281,911.544739 995.599915,908.195190 
	C994.689453,907.697388 993.508118,907.694702 992.250610,907.726929 
z"/>
<path fill="#0E2247" opacity="1.000000" stroke="none" 
	d="
M1014.260620,1329.545654 
	C1013.770142,1328.454468 1013.089722,1326.936401 1013.052795,1325.402832 
	C1012.916504,1319.749268 1012.869385,1314.086914 1013.039246,1308.435303 
	C1013.130859,1305.389648 1012.445435,1303.973755 1008.959167,1303.940796 
	C992.357544,1303.783936 975.754211,1303.490967 959.160950,1302.955200 
	C954.634949,1302.809082 952.130066,1304.077637 949.941101,1308.366577 
	C937.952209,1331.856934 925.521667,1355.121704 913.308594,1378.498291 
	C911.495300,1381.968994 910.031372,1385.621948 908.244507,1389.545166 
	C914.934631,1389.945435 921.273315,1390.324585 927.782593,1391.031128 
	C908.848450,1391.496338 889.743652,1391.634277 870.135620,1391.685547 
	C873.285400,1384.162231 876.683655,1376.587158 880.635864,1369.313110 
	C897.225342,1338.780518 914.035950,1308.367676 930.597412,1277.819946 
	C932.435425,1274.429688 934.490417,1273.120239 938.362122,1273.157104 
	C963.640625,1273.398071 988.921387,1273.400879 1014.541382,1273.692261 
	C1014.709534,1292.305786 1014.537842,1310.708618 1014.260620,1329.545654 
z"/>
<path fill="#0E2247" opacity="1.000000" stroke="none" 
	d="
M661.456360,1391.624512 
	C666.622681,1380.789673 672.199829,1370.034546 677.889038,1359.339111 
	C684.353699,1347.185791 690.899536,1335.075439 697.444336,1322.965088 
	C708.642334,1302.244385 719.886108,1281.548340 731.051636,1260.810059 
	C732.207581,1258.663208 732.963989,1256.301147 734.353577,1252.963013 
	C731.660156,1252.963013 729.782227,1252.963257 727.904236,1252.962769 
	C689.959778,1252.954834 652.015259,1252.951904 614.070801,1252.923218 
	C612.258545,1252.921875 610.446350,1252.695557 608.338074,1252.289062 
	C628.067017,1251.945801 648.091980,1251.887329 668.892700,1251.997070 
	C670.091187,1252.094849 670.514038,1252.024292 670.936951,1251.953857 
	C705.182983,1251.953857 739.429016,1251.953857 774.233459,1251.953857 
	C768.085266,1263.444092 762.229736,1274.585327 756.195007,1285.628540 
	C738.245239,1318.475830 719.994202,1351.161987 702.431824,1384.214478 
	C699.017639,1390.640137 694.503174,1392.080811 688.382141,1392.040405 
	C679.559998,1391.981934 670.738403,1391.837891 661.456360,1391.624512 
z"/>
<path fill="#154E8D" opacity="1.000000" stroke="none" 
	d="
M971.097656,885.116821 
	C961.252136,885.891418 953.448669,881.988708 947.520508,874.626953 
	C942.875977,875.613403 939.222656,877.339417 939.455322,882.782288 
	C939.471924,883.171387 938.968628,883.661194 938.598450,883.976746 
	C931.074158,890.392883 933.727600,898.520752 934.577148,906.462952 
	C934.793579,908.486206 933.592285,910.661072 932.802979,913.682861 
	C934.645813,918.053711 934.507690,917.702759 928.849976,918.310852 
	C924.390991,918.790100 920.081543,920.660645 915.334412,921.941284 
	C920.753723,910.783569 926.429626,899.536499 932.365295,888.428284 
	C939.087280,875.848633 946.074463,863.411072 952.882874,850.877197 
	C956.670288,843.904724 960.363464,836.880249 964.018494,829.837463 
	C964.857422,828.220947 965.365173,826.432617 965.039001,824.082825 
	C953.913818,832.018127 942.726685,839.868286 931.679199,847.910278 
	C917.901855,857.939575 904.177124,868.043701 890.548889,878.274353 
	C881.023315,885.425293 871.554810,892.670410 862.394165,900.275024 
	C860.381958,901.945251 859.756042,905.304321 858.540649,907.908569 
	C857.795410,909.505554 857.143494,911.146057 856.103882,912.948792 
	C857.158813,908.196655 858.559448,903.262817 860.185547,897.956299 
	C874.905029,887.007812 889.458984,876.512939 903.880737,865.839417 
	C934.766907,842.980652 965.584778,820.029602 996.779968,797.071289 
	C1007.478394,823.571228 1013.168518,851.051086 1014.208862,880.039429 
	C1002.434998,880.039429 991.166992,880.155884 979.904114,879.966553 
	C976.637146,879.911621 974.103333,880.628662 971.876221,883.818115 
	C971.239990,884.517456 971.105469,884.815125 971.080383,885.162170 
	C971.080383,885.162170 971.071472,885.094971 971.097656,885.116821 
z"/>
<path fill="#E95056" opacity="1.000000" stroke="none" 
	d="
M1183.045288,1005.618896 
	C1182.463013,1005.376465 1181.881226,1004.831970 1181.370605,1003.977173 
	C1181.976562,1004.216797 1182.511108,1004.766785 1183.045288,1005.618896 
z"/>
<path fill="#1864A5" opacity="1.000000" stroke="none" 
	d="
M670.783691,1251.806885 
	C670.514038,1252.024292 670.091187,1252.094849 669.361328,1252.059082 
	C669.579712,1251.855103 670.105103,1251.757568 670.783691,1251.806885 
z"/>
<path fill="#17407F" opacity="1.000000" stroke="none" 
	d="
M971.343933,885.070068 
	C971.105469,884.815125 971.239990,884.517456 971.694092,884.135986 
	C971.805420,884.327820 971.706421,884.652893 971.343933,885.070068 
z"/>
<path fill="#FFFFFF" opacity="1.000000" stroke="none" 
	d="
M993.690186,1156.753662 
	C998.370667,1146.512451 1003.265564,1136.148315 1008.682251,1126.064453 
	C1022.768677,1099.840698 1037.063965,1073.729004 1051.327148,1047.600586 
	C1053.783203,1043.101562 1056.491211,1038.740112 1059.351318,1034.149170 
	C1074.827026,1062.471191 1090.023682,1090.965088 1105.246460,1119.444946 
	C1111.750000,1131.611938 1118.308472,1143.749634 1125.302979,1156.758179 
	C1081.160645,1156.758179 1037.651489,1156.758179 993.690186,1156.753662 
z"/>
<path fill="#1864A5" opacity="1.000000" stroke="none" 
	d="
M1458.823242,1119.803711 
	C1459.013428,1196.435059 1459.013428,1272.775635 1459.013428,1350.645386 
	C1455.449585,1345.682007 1452.743896,1342.012329 1450.140259,1338.271484 
	C1436.695312,1318.953125 1423.220093,1299.655396 1409.866211,1280.274292 
	C1399.427368,1265.123901 1389.199829,1249.828003 1378.776001,1234.667236 
	C1374.933594,1229.078857 1370.237549,1224.002319 1366.977539,1218.113037 
	C1364.481689,1213.604370 1363.136475,1208.280884 1362.142822,1203.152466 
	C1359.379150,1188.886841 1357.002930,1174.544678 1354.588623,1160.213379 
	C1350.994629,1138.878784 1347.588257,1117.512207 1343.927490,1096.189209 
	C1341.746460,1083.484985 1339.146362,1070.853027 1336.908936,1058.157837 
	C1336.022217,1053.126099 1335.607788,1048.010864 1334.977051,1042.484619 
	C1374.444092,1066.906860 1413.909790,1091.782349 1453.389160,1116.636353 
	C1455.073242,1117.696533 1456.882202,1118.558472 1458.823242,1119.803711 
z"/>
<path fill="#FDCC14" opacity="1.000000" stroke="none" 
	d="
M755.999634,661.992676 
	C773.160217,663.293945 789.806458,664.839478 806.485657,665.828674 
	C823.668579,666.847656 840.150635,671.136536 856.465576,676.048767 
	C866.928040,679.198792 877.100647,683.342896 887.325500,687.244873 
	C909.851501,695.841248 928.501099,710.410095 946.466370,725.991333 
	C947.699097,727.060547 948.727417,728.365417 950.288635,730.026489 
	C944.164551,733.381836 938.446106,736.605042 932.646240,739.674255 
	C919.472351,746.645752 906.297607,753.617615 893.052368,760.451904 
	C867.947327,773.405701 842.835876,786.349426 817.589722,799.023499 
	C815.126038,800.260193 811.394714,800.517334 808.777405,799.647461 
	C793.585083,794.598877 778.023132,792.280945 762.106689,790.786987 
	C741.060730,788.811523 720.150024,789.972168 699.844910,794.497375 
	C685.466614,797.701843 671.540710,804.092712 658.243591,810.726379 
	C637.185181,821.232117 625.557129,840.317871 616.033630,860.997070 
	C610.783081,872.397949 606.991455,884.181091 605.034363,896.492188 
	C603.298157,907.413879 602.302490,918.453796 601.008545,929.444885 
	C600.661011,932.397278 600.029480,935.386047 600.211304,938.315674 
	C600.542908,943.658264 597.631226,944.118103 593.369446,944.047729 
	C566.497314,943.604187 539.622864,943.268311 512.747925,943.037781 
	C496.337128,942.896912 479.923218,942.911865 463.512817,943.074036 
	C459.484924,943.113831 457.894714,941.952637 457.919373,937.694763 
	C458.034882,917.761658 459.262634,897.922546 463.771790,878.475952 
	C467.761444,861.269775 471.510315,843.908447 477.134003,827.211304 
	C481.752258,813.499268 488.497803,800.420593 495.136383,787.490417 
	C506.847412,764.680481 522.715820,744.864929 541.816223,727.853821 
	C556.562805,714.720398 572.419983,703.109192 590.511475,694.585205 
	C610.644897,685.099121 631.123657,676.614441 652.823975,671.756958 
	C666.819275,668.624207 681.125366,666.406799 695.412598,665.165405 
	C715.382812,663.430359 735.465332,662.988098 755.999634,661.992676 
z"/>
</svg>